<?xml version="1.0" encoding="utf-8"?>
<!-- Generator: Adobe Illustrator 19.0.0, SVG Export Plug-In . SVG Version: 6.00 Build 0)  -->
<svg version="1.1" id="Layer_1" xmlns="http://www.w3.org/2000/svg" xmlns:xlink="http://www.w3.org/1999/xlink" x="0px" y="0px"
	 viewBox="0 0 1400 980" style="enable-background:new 0 0 1400 980;" xml:space="preserve">
<style type="text/css">
	.st0{fill:#323132;}
	.st1{fill:#FFFFFF;}
	.st2{fill-rule:evenodd;clip-rule:evenodd;fill:#D7A365;}
	.st3{fill-rule:evenodd;clip-rule:evenodd;fill:#ECC383;}
	.st4{fill-rule:evenodd;clip-rule:evenodd;fill:#E1B173;}
	.st5{fill-rule:evenodd;clip-rule:evenodd;fill:#CE9854;}
	.st6{fill:#CC3E48;}
	.st7{fill:#ADBBC8;}
	.st8{fill-rule:evenodd;clip-rule:evenodd;fill:#FFFFFF;}
	.st9{fill:#4B7699;}
	.st10{fill:#FFA20D;}
	.st11{fill-rule:evenodd;clip-rule:evenodd;fill:#323132;}
	.st12{fill:#F1A93B;}
	.st13{fill:#E6E6E6;}
	.st14{fill:#3A2F28;}
	.st15{fill-rule:evenodd;clip-rule:evenodd;fill:#EEAC34;}
</style>
<g>
	<rect class="st0" width="1400" height="980"/>
	<g>
		<g>
			<g>
				<path class="st1" d="M498.7,319.3l0.1-0.1l45-62.7l69.4-73.7l0.1,0l97.8-33.5l0.1,0l106.2,19.6l0.1,0l64.1,30.7l0.1,0.1
					l74.8,89.4l0,0.1l24.9,108.9l0,0.1l-27,103.6l-0.1,0.1l-73.4,86l-43.9,33.7l-0.1,0l-112.6,22.6l-0.1,0l-112.6-31.9l-0.1-0.1
					l-82.9-73.3l0-0.1L489,432.7L498.7,319.3z M613.9,183.8l-69.2,73.4l-44.9,62.5l-9.6,112.8l39.5,105.7l82.6,73L724.5,643
					l112.2-22.5l43.6-33.5l73.2-85.8l26.9-103.2l-24.8-108.5l-74.5-89l-63.8-30.6l-105.9-19.5L613.9,183.8z"/>
			</g>
			<g>
				<path class="st1" d="M620.6,187.1l106.1-8.1l91.1-10.3l12.8,54.6l75.5,84.3l0,0.1l45.6,103l-78.8,0.8l-106.2,7.2l-0.2-0.2
					l-72.3-94.3l-51.2-81.7l0,0L620.6,187.1z M817,170l-90.1,10.2l-104.6,8l21.9,53.7l51.1,81.6l72,94l105.6-7.1l77.1-0.8
					l-44.8-101.2l-75.6-84.4L817,170z"/>
			</g>
			<g>
				<polygon class="st1" points="550.2,271.9 621,187.3 621.9,188 553.6,269.6 643.4,241.6 726.4,179.1 727.1,180.1 644,242.6 
					643.9,242.7 				"/>
			</g>
			<g>
				<polygon class="st1" points="498.6,319.3 553.1,268.8 517.5,380.4 532.4,495.6 489.2,433 490.1,432.3 530.7,491 516.3,380.3 
					516.4,380.2 550.7,272.7 499.9,319.7 515.5,380 515.4,380.2 488.6,433.9 487.6,433.4 514.3,379.9 				"/>
			</g>
			<g>
				<path class="st1" d="M552.6,272.6l1.1-0.5l34,69.8l0.8,1.2l0.9-3.7l53.8-97.5l1,0.6l-53.8,97.4l-0.5,2.1L695.7,323l-43.4,109.1
					l-65.7-89.6L552.6,272.6z M693.9,324.5l-105.2,18.8l63.3,86.4L693.9,324.5z"/>
			</g>
			<g>
				
					<rect x="512.4" y="361.6" transform="matrix(-0.8809 0.4732 -0.4732 -0.8809 1207.3809 420.6424)" class="st1" width="76.8" height="1.2"/>
			</g>
			<g>
				<path class="st1" d="M530,492.1l83.4,31.7l38.6-94.1l72.1,90.8L614.2,525l-0.6,1.4l80.7,73l79.2,33.9l-0.5,1.1l-79.4-34
					l-0.1-0.1l-81.4-73.6l0.7-1.8l-79.9-30.4l79.4,116.9l-1,0.7L530,492.1z M652.3,432l-37.6,91.8l107-4.3L652.3,432z"/>
			</g>
			<g>
				<polygon class="st1" points="692,600.8 722.3,519.8 766.5,417.8 767.6,418.3 723.4,520.3 693.8,599.2 805,576.3 724.6,522 
					725.3,521.1 807.9,576.9 				"/>
			</g>
			<g>
				<polygon class="st1" points="775.3,633.8 878.6,587.7 805,577 899.4,505.9 881.7,585.6 880.6,585.3 897.6,508.7 807.9,576.2 
					882.8,587.2 775.8,634.9 				"/>
			</g>
			<g>
				
					<rect x="760.3" y="603.2" transform="matrix(-0.4852 0.8744 -0.8744 -0.4852 1703.2803 204.7064)" class="st1" width="62.1" height="1.2"/>
			</g>
			<g>
				<path class="st1" d="M830.2,223l79.1,11.9l-2.9,72.4l0,0.1l-32.8,103.6l25,94.6l52.8-97.6l3.2,94.2l-56,5.8l-1.1,2l-1-0.6
					l1.3-2.4l-25.4-96.1l0-0.2l32.8-103.6l2.8-71.2l-78.1-11.8L830.2,223z M950.4,412.2l-51.1,94.4l54.1-5.6L950.4,412.2z"/>
			</g>
			<g>
				
					<rect x="862.7" y="146.3" transform="matrix(-0.5891 0.808 -0.808 -0.5891 1535.5206 -375.9126)" class="st1" width="1.2" height="112.2"/>
			</g>
			<g>
				<polygon class="st1" points="613.3,183.8 613.9,182.8 621.5,187 711.5,149.1 727.2,179.1 830.8,223.2 811.1,312 905.6,307.3 
					905.7,308.5 809.7,313.2 829.5,223.9 726.3,180.1 711,150.6 621.4,188.3 				"/>
			</g>
			<g>
				<polygon class="st1" points="652.1,430.3 766.7,417.5 810.3,311.4 873.5,410.6 872.5,411.2 810.5,313.9 767.5,418.6 
					767.1,418.6 652.2,431.4 				"/>
			</g>
			<g>
				
					<rect x="694.5" y="317.6" transform="matrix(-0.9954 9.565815e-02 -9.565815e-02 -0.9954 1532.2084 562.8986)" class="st1" width="116.1" height="1.2"/>
			</g>
			<g>
				<path class="st1" d="M531,493.3l1.2,0.1l-2.3,45l64.1,46.4l18.7-59.2l83.1,75.2L594,586.2l-0.1-0.1l-65.3-47.2L531,493.3z
					 M613.2,527.6L595,585.1l97.2,13.9L613.2,527.6z"/>
			</g>
			<g>
				<polygon class="st1" points="904.7,307.7 955.9,288.8 956.3,289.8 906.7,308.2 982,398.3 951.1,410.6 950.7,409.5 980,397.9 
									"/>
			</g>
			<g>
				
					<rect x="708.8" y="595.6" transform="matrix(-0.8193 0.5734 -0.5734 -0.8193 1647.2529 724.7625)" class="st1" width="1.2" height="52.8"/>
			</g>
		</g>
		<g>
			<path class="st1" d="M725.2,186.7c-3.9-0.9-6.4-4.8-5.5-8.7c0.9-3.9,4.8-6.4,8.7-5.5c3.9,0.9,6.4,4.8,5.5,8.7
				C733,185.1,729.1,187.6,725.2,186.7z"/>
			<path class="st1" d="M693.2,330.8c-3.9-0.9-6.4-4.8-5.5-8.7c0.9-3.9,4.8-6.4,8.7-5.5c3.9,0.9,6.4,4.8,5.5,8.7
				C701,329.2,697.2,331.7,693.2,330.8z"/>
			<path class="st1" d="M642.1,249.2c-3.9-0.9-6.4-4.8-5.5-8.7c0.9-3.9,4.8-6.4,8.7-5.5c3.9,0.9,6.4,4.8,5.5,8.7
				C649.9,247.6,646,250.1,642.1,249.2z"/>
			<circle class="st1" cx="587.2" cy="342.2" r="8.6"/>
			<path class="st1" d="M488.1,439.7c-3.9-0.9-6.4-4.8-5.5-8.7c0.9-3.9,4.8-6.4,8.7-5.5c3.9,0.9,6.4,4.8,5.5,8.7
				C495.9,438.1,492,440.6,488.1,439.7z"/>
			<circle class="st1" cx="767.1" cy="418" r="8.8"/>
			<circle class="st1" cx="905.7" cy="307.9" r="7.3"/>
			<path class="st1" d="M979.4,405.2c-3.9-0.9-6.4-4.8-5.5-8.7c0.9-3.9,4.8-6.4,8.7-5.5c3.9,0.9,6.4,4.8,5.5,8.7
				C987.2,403.6,983.4,406.1,979.4,405.2z"/>
			<path class="st1" d="M952.5,508.6c-3.9-0.9-6.4-4.8-5.5-8.7c0.9-3.9,4.8-6.4,8.7-5.5c3.9,0.9,6.4,4.8,5.5,8.7
				C960.3,507,956.4,509.5,952.5,508.6z"/>
			<circle class="st1" cx="722.9" cy="520" r="7.3"/>
			<path class="st1" d="M829,228.9c-2.9-0.7-4.8-3.6-4.1-6.5c0.7-2.9,3.6-4.8,6.5-4.1c2.9,0.7,4.8,3.6,4.1,6.5
				C834.8,227.7,831.9,229.5,829,228.9z"/>
			<path class="st1" d="M907.6,240.7c-2.9-0.7-4.8-3.6-4.1-6.5c0.6-2.9,3.6-4.8,6.5-4.1c2.9,0.7,4.8,3.6,4.1,6.5
				C913.4,239.5,910.5,241.4,907.6,240.7z"/>
			<path class="st1" d="M816.2,174.7c-2.9-0.7-4.8-3.6-4.1-6.5c0.7-2.9,3.6-4.8,6.5-4.1c2.9,0.7,4.8,3.6,4.1,6.5
				C822.1,173.5,819.2,175.3,816.2,174.7z"/>
			<path class="st1" d="M949.7,415.4c-2.9-0.7-4.8-3.6-4.1-6.5c0.7-2.9,3.6-4.8,6.5-4.1c2.9,0.7,4.8,3.6,4.1,6.5
				C955.6,414.2,952.7,416,949.7,415.4z"/>
			<path class="st1" d="M897.3,512.6c-2.9-0.7-4.8-3.6-4.1-6.5c0.7-2.9,3.6-4.8,6.5-4.1c2.9,0.7,4.8,3.6,4.1,6.5
				C903.2,511.4,900.2,513.3,897.3,512.6z"/>
			<path class="st1" d="M723.3,649c-2.9-0.6-4.8-3.6-4.1-6.5c0.7-2.9,3.6-4.8,6.5-4.1c2.9,0.7,4.8,3.6,4.1,6.5
				C729.2,647.8,726.3,649.6,723.3,649z"/>
			<path class="st1" d="M612.2,529.8c-2.9-0.7-4.8-3.6-4.1-6.5c0.6-2.9,3.6-4.8,6.5-4.1c2.9,0.6,4.8,3.6,4.1,6.5
				C618.1,528.6,615.2,530.4,612.2,529.8z"/>
			<path class="st1" d="M528.1,543.9c-2.9-0.7-4.8-3.6-4.2-6.5c0.7-2.9,3.6-4.8,6.5-4.1c2.9,0.7,4.8,3.6,4.1,6.5
				C533.9,542.7,531,544.6,528.1,543.9z"/>
			<path class="st1" d="M530.4,498.6c-2.9-0.7-4.8-3.6-4.1-6.5c0.6-2.9,3.6-4.8,6.5-4.1c2.9,0.7,4.8,3.6,4.1,6.5
				C536.2,497.4,533.3,499.3,530.4,498.6z"/>
			<path class="st1" d="M498.1,324.8c-2.9-0.7-4.8-3.6-4.1-6.5c0.7-2.9,3.6-4.8,6.5-4.1c2.9,0.7,4.8,3.6,4.1,6.5
				C504,323.6,501,325.5,498.1,324.8z"/>
			<path class="st1" d="M515.7,385.7c-2.9-0.7-4.8-3.6-4.1-6.5c0.7-2.9,3.6-4.8,6.5-4.1c2.9,0.6,4.8,3.6,4.1,6.5
				C521.6,384.5,518.7,386.4,515.7,385.7z"/>
			<path class="st1" d="M612.4,188.6c-2.9-0.7-4.8-3.6-4.1-6.5c0.7-2.9,3.6-4.8,6.5-4.1c2.9,0.7,4.8,3.6,4.1,6.5
				C618.3,187.4,615.4,189.2,612.4,188.6z"/>
			<path class="st1" d="M955,294.6c-2.9-0.6-4.8-3.6-4.1-6.5c0.7-2.9,3.6-4.8,6.5-4.1c2.9,0.7,4.8,3.6,4.1,6.5
				C960.8,293.4,957.9,295.3,955,294.6z"/>
			<path class="st1" d="M880.6,203.6c-2-0.4-3.2-2.4-2.8-4.3c0.4-2,2.4-3.2,4.3-2.8c2,0.4,3.2,2.4,2.8,4.3
				C884.5,202.8,882.6,204,880.6,203.6z"/>
			<path class="st1" d="M809.6,316.2c-2-0.4-3.2-2.4-2.8-4.3c0.4-2,2.4-3.2,4.3-2.8c2,0.4,3.2,2.4,2.8,4.3
				C813.5,315.4,811.6,316.6,809.6,316.2z"/>
			<path class="st1" d="M710.5,153.4c-2-0.4-3.2-2.4-2.8-4.3c0.4-2,2.4-3.2,4.3-2.8c2,0.4,3.2,2.4,2.8,4.3
				C714.4,152.6,712.5,153.8,710.5,153.4z"/>
			<path class="st1" d="M651.3,434.8c-2.1-0.5-3.5-2.6-3-4.7c0.5-2.1,2.6-3.5,4.7-3c2.1,0.5,3.5,2.6,3,4.7
				C655.6,433.9,653.4,435.2,651.3,434.8z"/>
			<path class="st1" d="M611.2,615.3c-2-0.4-3.2-2.4-2.8-4.3c0.4-2,2.4-3.2,4.3-2.8c2,0.4,3.2,2.4,2.8,4.3
				C615.1,614.5,613.2,615.8,611.2,615.3z"/>
			<path class="st1" d="M805.7,580.1c-2-0.4-3.2-2.4-2.8-4.3c0.4-2,2.4-3.2,4.3-2.8c2,0.4,3.2,2.4,2.8,4.3
				C809.6,579.3,807.6,580.6,805.7,580.1z"/>
			<path class="st1" d="M836,625.2c-2.3-0.5-3.7-2.8-3.2-5c0.5-2.3,2.8-3.7,5-3.2c2.3,0.5,3.7,2.8,3.2,5
				C840.6,624.3,838.3,625.7,836,625.2z"/>
			<path class="st1" d="M879.9,591c-2-0.4-3.2-2.4-2.8-4.3c0.4-2,2.4-3.2,4.3-2.8c2,0.4,3.2,2.4,2.8,4.3
				C883.8,590.2,881.9,591.4,879.9,591z"/>
			<path class="st1" d="M550.3,277.8c-3.9-0.9-6.4-4.8-5.5-8.7c0.9-3.9,4.8-6.4,8.7-5.5c3.9,0.9,6.4,4.8,5.5,8.7
				C558.1,276.2,554.2,278.7,550.3,277.8z"/>
			<path class="st1" d="M872,415.4c-2.5-0.5-4-3-3.5-5.5c0.5-2.5,3-4,5.5-3.5c2.5,0.5,4,3,3.5,5.5
				C876.9,414.4,874.5,415.9,872,415.4z"/>
			<path class="st1" d="M774,641.4c-3.9-0.9-6.4-4.8-5.5-8.7c0.9-3.9,4.8-6.4,8.7-5.5c3.9,0.9,6.4,4.8,5.5,8.7
				C781.8,639.8,777.9,642.3,774,641.4z"/>
			<path class="st1" d="M693.2,605.3c-2.7-0.6-4.5-3.3-3.9-6c0.6-2.7,3.3-4.5,6-3.8c2.7,0.6,4.5,3.3,3.9,6
				C698.6,604.2,695.9,605.9,693.2,605.3z"/>
		</g>
	</g>
	<g>
		<polygon class="st2" points="724.9,729.6 672,706.1 565.7,753.3 618.6,776.8 565.7,800.3 618.6,823.8 618.6,887.9 724.9,935.1 
			831.2,887.9 831.2,823.8 884,800.3 831.2,776.8 884,753.3 777.8,706.1 		"/>
		<g>
			<polygon class="st3" points="831.2,776.8 724.9,824 724.9,935.1 831.2,887.9 			"/>
			<polygon class="st4" points="618.6,776.8 724.9,824 724.9,935.1 618.6,887.9 			"/>
			<polygon class="st4" points="831.2,776.8 724.9,729.6 724.9,824 			"/>
			<polygon class="st5" points="884,800.3 831.2,776.8 724.9,824 777.8,847.5 			"/>
			<polygon class="st5" points="724.9,729.6 777.8,706.1 884,753.3 831.2,776.8 			"/>
			<polygon class="st5" points="565.7,800.3 618.6,776.8 724.9,824 672,847.5 			"/>
			<polygon class="st5" points="724.9,729.6 672,706.1 565.7,753.3 618.6,776.8 			"/>
			<polygon class="st3" points="618.6,776.8 724.9,729.6 724.9,824 			"/>
		</g>
	</g>
	<g>
		<rect x="723.9" y="646.8" class="st1" width="2" height="85.2"/>
	</g>
	<g id="icon_2_">
		<g>
			<path class="st1" d="M738.3,796.2c-7.6-7.6-19.9-7.6-27.5,0l0,0c-1.6,1.6-4.2,1.6-5.9,0l0,0c-1.6-1.6-1.6-4.2,0-5.9l0,0
				c10.8-10.8,28.4-10.8,39.3,0l0,0c1.6,1.6,1.6,4.2,0,5.9l0,0C742.5,797.8,739.9,797.8,738.3,796.2L738.3,796.2z"/>
		</g>
		<g>
			<path class="st1" d="M752.3,782.1c-7.7-7.7-17.7-11.5-27.8-11.5l0,0c-10.1,0-20.1,3.8-27.8,11.5l0,0c-1.6,1.6-4.2,1.6-5.9,0l0,0
				c-1.6-1.6-1.6-4.3,0-5.9l0,0c18.6-18.6,48.8-18.6,67.4,0l0,0c1.6,1.6,1.6,4.2,0,5.9l0,0C756.6,783.8,753.9,783.8,752.3,782.1
				L752.3,782.1z"/>
		</g>
		<g>
			<path class="st1" d="M766.4,768.1c-11.6-11.6-26.7-17.3-41.9-17.3l0,0c-15.2,0-30.3,5.8-41.9,17.3l0,0c-1.6,1.6-4.2,1.6-5.9,0
				l0,0c-1.6-1.6-1.6-4.2,0-5.9l0,0c26.4-26.4,69.1-26.4,95.5,0l0,0c1.6,1.6,1.6,4.2,0,5.9l0,0C770.6,769.7,768,769.7,766.4,768.1
				L766.4,768.1z"/>
		</g>
		<path class="st1" d="M729.5,800.9c2.7,2.7,2.7,7.2,0,9.9c-2.7,2.7-7.2,2.7-9.9,0c-2.7-2.7-2.7-7.2,0-9.9
			C722.3,798.1,726.8,798.1,729.5,800.9z"/>
	</g>
</g>
<g>
	<path class="st1" d="M1213.8,893.3h-17.1v-2.4h17.1V893.3z"/>
	<path class="st1" d="M1215.3,870.6c0-1.3,1-2.3,2.3-2.3c1.3,0,2.3,1.1,2.3,2.3c0,1.3-1,2.3-2.3,2.3
		C1216.3,872.9,1215.3,871.8,1215.3,870.6z M1215.6,874.6h4V890h-4V874.6z"/>
	<path class="st1" d="M1238,881.4v8.6h-4v-8.6c0-2.4-1.2-3.6-3.4-3.6c-1.4,0-2.5,0.5-3.4,1.2v11h-4v-15.5h4v1
		c1.1-0.8,2.6-1.3,4.1-1.3C1235.9,874.3,1238,876.4,1238,881.4z"/>
	<path class="st1" d="M1246.4,877.8v5.5c0,2.8,0.5,3.6,2.5,3.6c0.7,0,1.3-0.1,1.8-0.1v3c-0.2,0.1-1.4,0.6-3.6,0.6
		c-2.6,0-4.7-1.6-4.7-4.9v-7.6h-2.2v-3.3h2.2v-6h4v6h4.3v3.3H1246.4z"/>
	<path class="st1" d="M1256.1,883.4c0.4,2,2.1,3.5,4.4,3.5c1.6,0,3.1-0.7,4-1.9l2.5,2.1c-1.4,1.9-4,3.2-7,3.2c-4.7,0-7.9-3.6-7.9-8
		c0-4.5,3.3-8,7.9-8c4.8,0,7.5,3.5,7.5,8.3c0,0.3,0,0.6,0,0.9H1256.1z M1256.2,880.9h7.7c-0.1-1.8-1.1-3.5-3.7-3.5
		C1258,877.4,1256.5,879,1256.2,880.9z"/>
	<path class="st1" d="M1274.4,876.7c1.1-1.5,2.7-2.4,4.9-2.5c0.3,0,0.7,0.1,1,0.2v4.3c0,0-1.1-0.2-1.9-0.2c-2.9,0-3.9,2-3.9,4.1v7.5
		h-4v-15.5h4V876.7z"/>
	<path class="st1" d="M1297.6,881.4v8.6h-4v-8.6c0-2.4-1.2-3.6-3.4-3.6c-1.4,0-2.5,0.5-3.4,1.2v11h-4v-15.5h4v1
		c1.1-0.8,2.6-1.3,4.1-1.3C1295.5,874.3,1297.6,876.4,1297.6,881.4z"/>
	<path class="st1" d="M1304.2,883.4c0.4,2,2.1,3.5,4.4,3.5c1.6,0,3.1-0.7,4-1.9l2.5,2.1c-1.4,1.9-4,3.2-7,3.2c-4.7,0-7.9-3.6-7.9-8
		c0-4.5,3.3-8,7.9-8c4.8,0,7.5,3.5,7.5,8.3c0,0.3,0,0.6,0,0.9H1304.2z M1304.3,880.9h7.7c-0.1-1.8-1.1-3.5-3.7-3.5
		C1306.1,877.4,1304.6,879,1304.3,880.9z"/>
	<path class="st1" d="M1323.6,877.8v5.5c0,2.8,0.5,3.6,2.5,3.6c0.7,0,1.3-0.1,1.8-0.1v3c-0.2,0.1-1.4,0.6-3.6,0.6
		c-2.6,0-4.7-1.6-4.7-4.9v-7.6h-2.2v-3.3h2.2v-6h4v6h4.3v3.3H1323.6z"/>
	<path class="st1" d="M1214.8,908c0,4.4-3.8,8-8.5,8s-8.5-3.6-8.5-8c0-4.5,3.8-8,8.5-8S1214.8,903.5,1214.8,908z M1210.9,908
		c0-2.5-2-4.5-4.6-4.5c-2.5,0-4.6,2-4.6,4.5c0,2.4,2.1,4.4,4.6,4.4C1208.8,912.4,1210.9,910.4,1210.9,908z"/>
	<path class="st1" d="M1226.7,897.5c-0.5-0.1-1-0.1-1.6-0.1c-2.3,0-2.7,1-2.7,2.6v0.2h4.2v3.3h-4.2v12.7c0,3.1-1.9,4.9-4.9,4.9
		c-0.9,0-1.6-0.1-2.1-0.2v-3.2c2.5,0,3-0.5,3-3.5v-10.8h-2.2v-3.3h2.2v-1c0-3.9,2.2-5.2,4.8-5.2c2,0,3.2,0.5,3.4,0.5V897.5z"/>
	<path class="st1" d="M1242.9,903.5v5.5c0,2.8,0.5,3.6,2.5,3.6c0.7,0,1.3-0.1,1.8-0.1v3c-0.2,0.1-1.4,0.6-3.6,0.6
		c-2.6,0-4.7-1.6-4.7-4.9v-7.6h-2.2v-3.3h2.2v-6h4v6h4.3v3.3H1242.9z"/>
	<path class="st1" d="M1264.5,907.1v8.6h-4v-8.6c0-2.4-1.2-3.6-3.4-3.6c-1.4,0-2.5,0.4-3.4,1.2v11h-4v-21.5h4v6.8
		c1.1-0.7,2.6-1.1,4.1-1.1C1262.4,899.9,1264.5,902.1,1264.5,907.1z"/>
	<path class="st1" d="M1267.6,896.2c0-1.3,1-2.3,2.3-2.3c1.3,0,2.3,1.1,2.3,2.3c0,1.3-1,2.3-2.3,2.3
		C1268.7,898.5,1267.6,897.5,1267.6,896.2z M1268,900.2h4v15.5h-4V900.2z"/>
	<path class="st1" d="M1290.4,907.1v8.6h-4v-8.6c0-2.4-1.2-3.6-3.4-3.6c-1.4,0-2.5,0.5-3.4,1.2v11h-4v-15.5h4v1
		c1.1-0.8,2.6-1.3,4.1-1.3C1288.3,899.9,1290.4,902.1,1290.4,907.1z"/>
	<path class="st1" d="M1309.4,900.2v12.5c0,4-2.2,8.4-8.1,8.4c-3.8,0-4.6-0.3-7-1l0.8-2.9c1.7,0.5,3.1,0.9,5.2,0.9
		c2.4,0,4.8-1.4,4.9-3.9c-1.3,0.7-2.7,1.1-4.3,1.1c-4.3,0-7.8-3.1-7.8-7.7c0-4.6,3.5-7.6,7.8-7.6c1.6,0,3.2,0.4,4.5,1.2v-0.9H1309.4
		z M1301.6,911.7c1.5,0,2.9-0.5,3.8-1.3v-5.7c-1-0.8-2.3-1.3-3.8-1.3c-2.7,0-4.6,1.8-4.6,4.1C1297,910.1,1298.9,911.7,1301.6,911.7z
		"/>
	<path class="st1" d="M1313.6,911.5c1.9,0.8,3.4,1.3,5.3,1.3c1.8,0,2.5-0.7,2.5-1.5c0-0.9-0.9-1.3-3.3-1.8c-3.3-0.7-5.8-1.8-5.8-4.8
		c0-2.8,2.3-4.7,5.9-4.7c2.4,0,4.4,0.6,6,1.3l-1.3,2.9c-1.5-0.6-3.3-1-4.8-1c-1.5,0-2.3,0.5-2.3,1.4c0,0.9,0.9,1.3,3.4,1.8
		c3.6,0.7,5.7,2,5.7,4.8c0,2.9-2.3,4.9-6.2,4.9c-2.7,0-4.4-0.4-6.7-1.5L1313.6,911.5z"/>
</g>
<g>
	<path class="st6" d="M718.4,434.1c0-21.1,17.1-38.2,38.2-38.2c21.1,0,38.2,17.1,38.2,38.2c0,21.1-17.1,38.2-38.2,38.2
		C735.5,472.3,718.4,455.2,718.4,434.1z"/>
</g>
<g>
	<path class="st7" d="M336.5,179.8c0-47.5,38.5-86,85.9-86c47.5,0,85.9,38.5,85.9,86c0,47.5-38.5,85.9-85.9,85.9
		C375,265.7,336.5,227.3,336.5,179.8z"/>
</g>
<g>
	<path class="st7" d="M664.7,529.9c0-26.4,21.4-47.8,47.8-47.8c26.4,0,47.8,21.4,47.8,47.8c0,26.4-21.4,47.8-47.8,47.8
		C686.1,577.7,664.7,556.3,664.7,529.9z"/>
</g>
<g>
	<path class="st6" d="M373.5,382.2c0-18.2,14.8-33,33-33c18.2,0,33,14.8,33,33c0,18.2-14.8,33-33,33
		C388.2,415.2,373.5,400.4,373.5,382.2z"/>
</g>
<g>
	<path class="st8" d="M402.8,384.3v1.8h5.7h1.2h0.7v-7.5h-1.9v0.1h-5.3v0.2h-0.4L402.8,384.3L402.8,384.3z M408.5,384.3h-3.8v-4h3.8
		V384.3z"/>
	<path class="st8" d="M394.2,385.2l0.9-0.9v13.2h22.9v-12.8l0.6,0.6l3.1-3.1l-12.2-12.2l-3.1-3l-7.5,7.5v-5.3h-3.8v9.1l-4,4
		L394.2,385.2z M397,382.4l9.4-9.4l9.7,9.7l0.1,13h-5.8v-7.7h-7.6v7.7H397V382.4z"/>
</g>
<g>
	<path class="st9" d="M843,409.6c0-45.2,36.6-81.8,81.8-81.8c45.2,0,81.8,36.6,81.8,81.8c0,45.2-36.6,81.8-81.8,81.8
		C879.6,491.4,843,454.7,843,409.6z"/>
</g>
<g>
	<path class="st6" d="M406.5,618.1c0-59.2,48-107.1,107.1-107.1c59.2,0,107.2,48,107.2,107.1c0,59.2-48,107.1-107.2,107.1
		C454.5,725.3,406.5,677.3,406.5,618.1z"/>
</g>
<g>
	<path class="st6" d="M1001.5,209.1c0-34.2,27.7-62,62-62s62,27.7,62,62c0,34.2-27.7,62-62,62S1001.5,243.3,1001.5,209.1z"/>
</g>
<circle class="st6" cx="721" cy="96.7" r="33.7"/>
<circle class="st6" cx="897.5" cy="604.6" r="53.8"/>
<circle class="st10" cx="947.8" cy="247.7" r="29.9"/>
<g>
	<path class="st11" d="M933.9,235h6.4v-4.4h15v4.4h6.4v4.3h-2.1v22.6c0,2.1-0.8,2.9-2.8,2.9h-17.6c-2.4,0-3.2-0.8-3.2-3.2v-22.3
		h-2.1V235z M955.3,241.2h-2.1v17.2h2.1V241.2z M951,241.3h-2.1v17.2h2.1V241.3z M946.7,241.3h-2.1v17.2h2.1V241.3z M953.2,232.7
		h-10.7v2.2h10.7V232.7z M942.5,241.2h-2.1v17.2h2.1V241.2z"/>
</g>
<circle class="st10" cx="1110.7" cy="523" r="80.3"/>
<g>
	<circle class="st10" cx="516.7" cy="333.6" r="41.2"/>
</g>
<g>
	<rect x="910.7" y="439.9" class="st1" width="30.4" height="5.3"/>
	<path class="st1" d="M910.8,445.9l-1.3,2.8c0,0,0.1,0.8,0.7,0.8c0.6,0,31.3,0,31.8,0c0.6,0,0.6-0.8,0.6-0.8l-1.3-2.8H910.8z"/>
	<path class="st1" d="M974.6,372.3v55.4v1.3v6.5c0,1.7-1.2,3.1-2.8,3.1h-94c-1.5,0-2.8-1.4-2.8-3.1V429v-1.3v-55.4
		c0-1.5,1.3-2.8,2.8-2.8h94C973.4,369.5,974.6,370.8,974.6,372.3z"/>
	<rect x="880.6" y="376.4" class="st0" width="88.2" height="49.8"/>
	<rect x="889.3" y="388" class="st12" width="30.2" height="27.5"/>
	<g>
		<rect x="894.5" y="391.8" class="st0" width="19.6" height="1.9"/>
		<rect x="894.5" y="400" class="st0" width="19.6" height="1.9"/>
		<rect x="894.5" y="395.9" class="st0" width="19.6" height="1.9"/>
		<rect x="894.5" y="404" class="st0" width="11.1" height="1.9"/>
	</g>
</g>
<circle class="st9" cx="638.6" cy="380.4" r="26"/>
<path class="st9" d="M273.3,503.7c0,32.3,26.2,58.5,58.5,58.5c32.3,0,58.5-26.2,58.5-58.5c0-32.3-26.2-58.5-58.5-58.5
	C299.5,445.2,273.3,471.4,273.3,503.7z"/>
<g>
	<circle class="st7" cx="739.9" cy="256.3" r="38.2"/>
</g>
<g>
	<g>
		<g>
			<path class="st0" d="M764.2,241.1c-1.1,0.8-3,1.6-5.3,1.6c1.6-0.6,3.6-3,4.4-5.4c0,0-3.8,2.1-6.6,2.6c-1.8-2-4.5-3.2-7.4-3.2
				c-5.5,0-10,4.5-10,10c0,0.8,0.1,1.5,0.2,2.2c-8.5-0.2-17.2-5.6-20.5-10.5c-3,5.5-0.6,10.8,3.1,13.4c-1.8,0.1-3.5-0.6-4.5-1.4
				c-0.6,4.5,3.4,9.5,7.8,9.9c-1.3,0.7-3.2,0.4-4.3,0.3c1,4.7,6.3,7.3,9.3,6.9c-3.7,3.5-10.1,4.9-14.7,4.1c5.7,4.2,17.2,7,28.4,1.5
				c10.9-5.4,15.3-16.6,15.3-26.4c0-0.1,0-0.1,0-0.2C761.1,245.2,763.5,242.7,764.2,241.1z"/>
		</g>
	</g>
</g>
<path class="st0" d="M725.3,545.9c0,0-2.4,1-5.2,1c-3.4,0-5-2.7-5-6.4v-15.6h10.4v-8.6h-10.6v-13.5h-7.7c0,0,0,5-3.4,9.4
	c-3.1,4.1-6.9,5.3-6.9,5.3v7.4h6.4v15.6c0,12.4,6.6,16.7,14.6,16.7c6.9,0,10.2-3.4,10.2-3.4L725.3,545.9z"/>
<g>
	<g>
		<path class="st1" d="M505.9,303.1h21.5c3.5,0,6.4,2.9,6.4,6.4v48.4c0,3.5-2.9,6.4-6.4,6.4h-21.5c-3.5,0-6.4-2.9-6.4-6.4v-48.4
			C499.5,305.9,502.4,303.1,505.9,303.1z"/>
		<path class="st13" d="M520.6,304.9c0-0.2-0.4-0.4-0.8-0.4h-6.3c-0.4,0-0.8,0.2-0.8,0.4v0.2c0,0.2,0.4,0.4,0.8,0.4h6.3
			c0.4,0,0.8-0.2,0.8-0.4V304.9z"/>
		<path class="st13" d="M515.9,307.2c0,0.4,0.3,0.7,0.7,0.7c0.4,0,0.7-0.3,0.7-0.7c0-0.4-0.3-0.7-0.7-0.7
			C516.2,306.5,515.9,306.8,515.9,307.2z"/>
		<path class="st13" d="M512.7,360.9c0,0.4,0.4,0.8,0.8,0.8h6.3c0.4,0,0.8-0.4,0.8-0.8v-0.4c0-0.4-0.4-0.8-0.8-0.8h-6.3
			c-0.4,0-0.8,0.4-0.8,0.8V360.9z"/>
		<rect x="502.2" y="309.4" class="st1" width="29.6" height="48.4"/>
	</g>
	<rect x="501.8" y="309.4" class="st0" width="29.6" height="48.4"/>
	<g>
		<path class="st6" d="M516.7,337l2.4-2.1l6.8,5.8c-0.2,0.2-0.6,0.4-0.9,0.4h-16.5c-0.4,0-0.7-0.1-0.9-0.4l6.8-5.8L516.7,337z"/>
		<path class="st6" d="M507.5,327.8c0.2-0.2,0.6-0.4,0.9-0.4h16.5c0.4,0,0.7,0.1,0.9,0.4l-9.2,7.9L507.5,327.8z"/>
		<polygon class="st6" points="526.3,328.6 526.3,340 519.6,334.4 		"/>
		<polygon class="st6" points="513.7,334.4 507,340 507,328.6 		"/>
	</g>
</g>
<path class="st14" d="M545.8,184.9c0.4,0,0.8,0,1.1-0.1C546.5,184.9,546.2,184.9,545.8,184.9L545.8,184.9z"/>
<path class="st8" d="M648.1,376.7h-1.9c0-1.7,0-3.5,0-4.9c0-3.7-4-6.6-7.6-6.6c-3.7,0-7.6,3-7.6,6.6v4.9h-1.8c-1,0-1.9,0.8-1.9,1.9
	v15.1c0,1,0.8,1.9,1.9,1.9h18.9c1,0,1.9-0.8,1.9-1.9v-15.1C650,377.6,649.1,376.7,648.1,376.7z M634.9,371.9c0-1.6,2.1-2.8,3.7-2.8
	c1.6,0,3.8,1.3,3.8,2.8v4.9h-7.5C634.9,374.7,634.9,372.6,634.9,371.9z"/>
<g>
	<path class="st0" d="M461.7,162.9c0,0-25.9,21.4,3.4,40.2c0,0-16.2,27.4-22.9,28.2c-6.8,0.8-10.9-9.8-23.3-4.5
		c-12.4,5.3-16.2,3-22.9-3c-6.8-6-21.8-32.3-13.9-54.8c7.9-22.5,27.4-16.2,31.2-12.8c3.8,3.4,14.6,2.6,18.4-0.4
		C435.4,152.7,452.6,147.8,461.7,162.9z"/>
	<path class="st0" d="M440.6,128.3c0,0,6.4,24-21.8,25.9C418.8,154.2,412.1,133.9,440.6,128.3z"/>
</g>
<g>
	<path class="st1" d="M1066.3,567.6l7.1-22.4c-4.2-6.9-6.4-14.7-6.4-22.8c0-11.8,4.6-22.8,12.9-31.1c8.3-8.3,19.4-12.9,31.1-12.9
		c11.8,0,22.8,4.6,31.1,12.9c8.3,8.3,12.9,19.4,12.9,31.1c0,11.8-4.6,22.8-12.9,31.1c-8.3,8.3-19.4,12.9-31.1,12.9
		c-7.5,0-14.9-1.9-21.5-5.6L1066.3,567.6z"/>
	<path class="st0" d="M1090.6,553.2l1.3,0.8c5.8,3.5,12.4,5.4,19.2,5.4c20.4,0,37-16.6,37-37c0-20.4-16.6-37-37-37
		c-20.4,0-37,16.6-37,37c0,7.3,2.1,14.3,6.1,20.4l0.9,1.4l-4.1,13L1090.6,553.2z"/>
	<path class="st1" d="M1094.1,503.1c2-1.5,5-1.1,5.8-0.6c0.8,0.5,4.9,9.3,4.7,10.7c-0.1,1.3-1.1,2.6-1.8,3.3
		c-0.7,0.7-1.8,1.7-1.9,2.4c-0.1,0.7,3.3,6.1,6.2,8.5c3,2.4,8.7,6,10.1,5.8c1.3-0.2,2.3-1.9,2.9-2.7c0.6-0.8,1.7-2.7,2.7-2.9
		c1-0.2,6,2.4,6,2.4s4.6,1.9,4.9,2.5c0.3,0.6,0.4,4-0.8,5.7c-2.1,3.3-5.8,5.7-9.8,5.1c-4.5-0.7-13.2-2.2-21.7-10.9
		c-8.5-8.7-11.6-14.8-11.6-20.5C1089.7,507.8,1092.2,504.5,1094.1,503.1z"/>
</g>
<g id="icon_23_">
	<path class="st7" d="M568.2,675.3h-109c-1.1,0-2,0.9-2,2c0,1.1,0.9,2,2,2h109c1.1,0,2-0.9,2-2C570.2,676.2,569.3,675.3,568.2,675.3
		z"/>
	<path class="st7" d="M560.2,638.4h-93c-5.5,0-10,4.5-10,10v12.3c0,5.5,4.5,10,10,10h93c5.5,0,10-4.5,10-10v-12.3
		C570.2,642.9,565.7,638.4,560.2,638.4z M512.2,655.1c0,2.3-1.8,4.1-4.1,4.1h-39.5c-2.3,0-4.1-1.8-4.1-4.1v-1.7
		c0-2.3,1.8-4.1,4.1-4.1h39.5c2.3,0,4.1,1.8,4.1,4.1V655.1z M524.4,654.7c0,1.3-1,2.3-2.3,2.3h-4.3c-1.3,0-2.3-1-2.3-2.3v-1
		c0-1.3,1-2.3,2.3-2.3h4.3c1.3,0,2.3,1,2.3,2.3V654.7z M536.1,654.7c0,1.3-1,2.3-2.3,2.3h-4.3c-1.3,0-2.3-1-2.3-2.3v-1
		c0-1.3,1-2.3,2.3-2.3h4.3c1.3,0,2.3,1,2.3,2.3V654.7z M546.4,659.1c-2.7,0-4.8-2.2-4.8-4.8c0-2.7,2.2-4.8,4.8-4.8
		c2.7,0,4.8,2.2,4.8,4.8C551.2,656.9,549,659.1,546.4,659.1z M559.4,659.1c-2.7,0-4.8-2.2-4.8-4.8c0-2.7,2.2-4.8,4.8-4.8
		c2.7,0,4.8,2.2,4.8,4.8C564.2,656.9,562,659.1,559.4,659.1z"/>
	<path class="st1" d="M550.8,589.3v35.5c0,2.2-1.8,4-4,4h-9c-1.1,0-2,0.9-2,2c0,1.1,0.9,2,2,2h9c4.4,0,8-3.6,8-8v-35.3
		c4.2-0.8,7.3-4.4,7.3-8.8c0-4.9-4-9-9-9c-4.9,0-9,4-9,9C544.2,584.9,547,588.3,550.8,589.3z"/>
	<g>
		<path class="st0" d="M537.1,592.2c0.7,0.7,1.8,0.7,2.5,0.2c0.1-0.1,0.2-0.2,0.3-0.3c0.8-0.8,0.7-2.1-0.1-2.8
			c-4.9-4.7-5.1-12.6-0.4-17.5c0.8-0.8,0.7-2.1-0.1-2.8c-0.8-0.8-2.1-0.7-2.8,0.1C530.3,575.6,530.5,586,537.1,592.2z"/>
		<path class="st0" d="M531.1,598.4c0.7,0.7,1.7,0.7,2.5,0.2c0.1-0.1,0.2-0.2,0.3-0.3c0.8-0.8,0.7-2.1-0.1-2.8
			c-4.1-3.9-6.3-9.1-6.5-14.7c-0.1-5.6,1.9-10.9,5.8-15c0.8-0.8,0.7-2.1-0.1-2.8c-0.8-0.8-2.1-0.7-2.8,0.1
			c-4.6,4.8-7.1,11.2-6.9,17.8C523.6,587.6,526.3,593.8,531.1,598.4z"/>
		<path class="st0" d="M528.1,604.5c0.1-0.1,0.2-0.2,0.3-0.3c0.8-0.8,0.7-2.1-0.1-2.8c-5.6-5.4-8.8-12.6-9-20.4
			c-0.2-7.8,2.7-15.1,8-20.7c0.8-0.8,0.7-2.1-0.1-2.8c-0.8-0.8-2.1-0.7-2.8,0.1c-6.1,6.4-9.3,14.8-9.1,23.6
			c0.2,8.8,3.8,17,10.2,23.1C526.3,605,527.3,605,528.1,604.5z"/>
	</g>
</g>
<path class="st1" d="M1063.4,165.8c-18.6,0-33.8,15.1-33.8,33.8c0,28.8,33.8,52.8,33.8,52.8s33.8-24,33.8-52.8
	C1097.2,180.9,1082.1,165.8,1063.4,165.8z M1063.4,214.9c-8.5,0-15.4-6.9-15.4-15.4c0-8.5,6.9-15.4,15.4-15.4
	c8.5,0,15.4,6.9,15.4,15.4C1078.8,208.1,1071.9,214.9,1063.4,214.9z"/>
<g>
	<path class="st1" d="M356.1,496.9c-2.8-9.3-11.5-16.1-21.7-16.1c-9.7,0-17.9,6.1-21.2,14.7c-0.7-0.2-1.4-0.4-2.1-0.4
		c-4.1,0-7.4,3.3-7.4,7.4c0,0.6,0.1,1.2,0.2,1.7c-4.4,1.6-7.5,5.9-7.5,10.8c0,6.4,5.2,11.6,11.6,11.6c4.7,0,41,0,44.1,0
		c8.4,0,15.2-6.8,15.2-15.2C367.3,504.5,362.5,498.6,356.1,496.9z"/>
</g>
<g>
	<path class="st8" d="M897.5,566c-21.3,0-38.6,17.3-38.6,38.6c0,21.3,17.3,38.6,38.6,38.6c21.3,0,38.6-17.3,38.6-38.6
		C936.2,583.3,918.9,566,897.5,566z M897.9,633.3c-16,0-29-13-29-29c0-16,13-29,29-29c16,0,29,13,29,29
		C926.8,620.4,913.9,633.3,897.9,633.3z"/>
	<polygon class="st11" points="889.5,600.8 880.8,621.7 902.4,612.5 	"/>
	<polygon class="st15" points="892.5,597 905.6,609 914.4,587.9 	"/>
</g>
<g>
	<path class="st7" d="M705.4,81.2l0,26.7h31.2V81.2H705.4z M724.6,105.6h-6.3v-1h6.3V105.6z M733.7,102.1h-25V84h25V102.1z"/>
	<rect x="707.8" y="108.6" class="st7" width="26.4" height="3.7"/>
</g>
<g>
	<rect x="738.7" y="425" class="st1" width="8.9" height="27.2"/>
	<rect x="765.5" y="415.9" class="st1" width="8.9" height="36.3"/>
	<rect x="752.1" y="437.1" class="st1" width="8.9" height="15.1"/>
</g>
</svg>
